<?xml version="1.0" ?><!DOCTYPE svg  PUBLIC '-//W3C//DTD SVG 1.1//EN'  'http://www.w3.org/Graphics/SVG/1.1/DTD/svg11.dtd'><svg enable-background="new 0 0 800 800" height="800px" id="Layer_1" version="1.1" viewBox="0 0 800 800" width="800px" xml:space="preserve" xmlns="http://www.w3.org/2000/svg" xmlns:cc="http://creativecommons.org/ns#" xmlns:dc="http://purl.org/dc/elements/1.1/" xmlns:inkscape="http://www.inkscape.org/namespaces/inkscape" xmlns:rdf="http://www.w3.org/1999/02/22-rdf-syntax-ns#" xmlns:sodipodi="http://sodipodi.sourceforge.net/DTD/sodipodi-0.dtd" xmlns:svg="http://www.w3.org/2000/svg" xmlns:xlink="http://www.w3.org/1999/xlink"><path fill="#e5f6ff" d="M739.509,470.879h-79.118V235.384c0-8.284-6.717-15-15.001-15H439.822l52.201-52.216  c13.243-13.228,20.531-30.807,20.531-49.521c0-18.707-7.288-36.292-20.523-49.513c-13.221-13.228-30.813-20.508-49.513-20.508  c-14.056,0-27.489,4.109-38.907,11.778c-11.427-7.668-24.852-11.778-38.915-11.778c-18.707,0-36.292,7.281-49.521,20.508  c-13.228,13.228-20.508,30.814-20.508,49.513c0,18.707,7.281,36.292,20.508,49.513l52.223,52.223H154.61c-8.284,0-15,6.716-15,15  v235.495H60.492c-8.284,0-15,6.716-15,15v250.495c0,8.283,6.716,15,15,15h679.017c8.283,0,15-6.717,15-15V485.879  C754.509,477.595,747.792,470.879,739.509,470.879z M324.668,118.647c0-10.687,4.16-20.743,11.719-28.302  c7.559-7.559,17.615-11.719,28.309-11.719c10.693,0,20.75,4.16,28.309,11.719c5.853,5.86,15.359,5.86,21.212,0  c7.566-7.559,17.615-11.719,28.302-11.719c10.686,0,20.735,4.16,28.309,11.727c7.559,7.559,11.727,17.607,11.727,28.294  c0,10.694-4.168,20.735-11.741,28.302l-67.201,67.223l-67.224-67.223C328.829,139.39,324.668,129.341,324.668,118.647z   M630.39,250.384v95.247H169.61v-95.247H630.39z M169.61,375.632H630.39v95.247H169.61V375.632z M154.61,500.879H645.39h79.118  v95.247H75.492v-95.247H154.61z M75.492,721.373v-95.246h649.016v95.246H75.492z"/></svg>